<svg viewBox="0 0 834.36 359.06" xmlns="http://www.w3.org/2000/svg" xmlns:xlink="http://www.w3.org/1999/xlink"><linearGradient id="a"><stop offset="0" stop-color="#c82e92"/><stop offset=".41" stop-color="#ec224d"/><stop offset=".68" stop-color="#9a59a1"/><stop offset="1" stop-color="#7b3a8a"/></linearGradient><linearGradient id="b" gradientUnits="userSpaceOnUse" x1="113.18" x2="154.05" xlink:href="#a" y1="183.5" y2="183.5"/><linearGradient id="c" gradientUnits="userSpaceOnUse" x1="138.34" x2="264.7" xlink:href="#a" y1="103.43" y2="187.67"/><linearGradient id="d" gradientUnits="userSpaceOnUse" x1="112.37" x2="172.85" xlink:href="#a" y1="215.02" y2="254.38"/><linearGradient id="e" gradientUnits="userSpaceOnUse" x1="267.28" x2="179.8" y1="28.8" y2="102.24"><stop offset="0" stop-color="#c82e92"/><stop offset=".7" stop-color="#9a59a1"/><stop offset="1" stop-color="#7b3a8a"/></linearGradient><linearGradient id="f"><stop offset="0" stop-color="#f04c2e"/><stop offset=".49" stop-color="#ec224d"/><stop offset=".63" stop-color="#ec235b"/><stop offset=".88" stop-color="#eb267f"/><stop offset="1" stop-color="#ea2792"/></linearGradient><linearGradient id="g" gradientUnits="userSpaceOnUse" x1="97.96" x2="229.72" xlink:href="#f" y1="155.83" y2="248.71"/><linearGradient id="h" gradientUnits="userSpaceOnUse" x1="1.12" x2="123.73" xlink:href="#f" y1="173.8" y2="173.8"/><linearGradient id="i" gradientUnits="userSpaceOnUse" x1="11.7" x2="125.34" xlink:href="#a" y1="150.41" y2="150.41"/><linearGradient id="j"><stop offset="0" stop-color="#bf1e2e"/><stop offset=".49" stop-color="#7b3a8a"/><stop offset="1" stop-color="#c82e92"/></linearGradient><linearGradient id="k" gradientUnits="userSpaceOnUse" x1="3.44" x2="107.05" xlink:href="#j" y1="208.19" y2="208.19"/><linearGradient id="l" gradientUnits="userSpaceOnUse" x1="216.74" x2="202.7" y1="95.04" y2="135"><stop offset="0" stop-color="#7b3a8a"/><stop offset=".3" stop-color="#9a59a1"/><stop offset="1" stop-color="#c82e92"/></linearGradient><linearGradient id="m" gradientUnits="userSpaceOnUse" x1="184.77" x2="260.26" xlink:href="#f" y1="85.97" y2="85.97"/><linearGradient id="n" gradientUnits="userSpaceOnUse" x1="16.97" x2="115.03" xlink:href="#j" y1="245.66" y2="245.66"/><linearGradient id="o" gradientUnits="userSpaceOnUse" x1="13.55" x2="114.91" xlink:href="#f" y1="217.27" y2="217.27"/><linearGradient id="p" gradientUnits="userSpaceOnUse" x1="55.31" x2="110.09" xlink:href="#j" y1="265.52" y2="265.52"/><linearGradient id="q" gradientUnits="userSpaceOnUse" x1="89.72" x2="124.82" xlink:href="#f" y1="262.75" y2="262.75"/><linearGradient id="r" gradientUnits="userSpaceOnUse" x1="110.34" x2="132.99" xlink:href="#j" y1="291.47" y2="291.47"/><linearGradient id="s" gradientUnits="userSpaceOnUse" x1="120.87" x2="149.25" xlink:href="#f" y1="258.75" y2="258.75"/><linearGradient id="t" gradientUnits="userSpaceOnUse" x1="110.33" x2="173" xlink:href="#f" y1="301.57" y2="301.57"/><linearGradient id="u" gradientUnits="userSpaceOnUse" x1="133" x2="172.83" xlink:href="#j" y1="283.44" y2="283.44"/><path d="m113.52 179.76c.53-2.91 1.65-5.71 3.35-8.13 4.03-5.75 11.15-9.19 18.16-8.76 5.4.33 10.58 2.93 14.2 6.94 3.8 4.21 5.3 10.48 4.69 16.06-.14 1.32-.41 2.63-.8 3.89-1.61 5.21-5.35 9.75-10.2 12.22-3.69 1.88-7.97 2.56-12.08 1.97-6.95-1-13.23-5.81-16.02-12.25-1.61-3.73-2.02-7.94-1.3-11.94z" fill="url(#b)"/><path d="m291.41 47.12v-.02c0-.47-.05-.84-.15-1.16-.21-.72-.67-1.16-1.5-1.36-.13-.04-.25-.09-.4-.13-5.59-1.5-11.12-3.18-16.68-4.8-1.74-.51-3.49-1.01-5.23-1.52-2.52 6.6-8.05 17.75-13.05 27.69 1.75.51 3.49 1.04 5.24 1.53.99.28 1.4.76 1.41 1.81.07 14.66.2 29.33.25 43.99.02 4.86-.24 9.73-.25 14.59-.03 17.4-.06 34.79.01 52.19.01 2.18-.05 4.34-.18 6.5 2.81.79 5.64 1.59 8.45 2.43l11.4 3.4-8.34 8.49c-3.73 3.8-7.16 7.86-10.79 12.15-3.4 4.03-6.88 8.14-10.67 12.07-1.06 2.31-2.19 4.59-3.39 6.85-4.29 8.08-28.88 38.77-30.7 40.47-4.16 3.89-8.22 7.9-12.47 11.69-.11.1-.22.2-.33.3-9.13 8.09-18.74 15.57-28.78 22.48 1.6 5.92 3.15 11.7 4.66 17.39l2.13 7.99-8.21.97c-9.24 1.09-17.67 1.62-25.76 1.62-13.23 0-25.18-1.44-36.42-4.35l-.05.26-7.79-2.42c-.35-.11-.71-.23-1.06-.34l-.52-.15v-.02c-5.73-1.86-11.45-4.13-17.18-6.84 6.98 5.4 14.15 10.55 21.51 15.44.57.41 1.13.83 1.73 1.21.87.55 1.74 1.08 2.61 1.62 2.8 1.8 5.61 3.58 8.45 5.31 5.03 3.05 10.1 6.03 15.18 8.99 3.37 2 6.74 3.99 10.11 5.99.36.21.9.29 1.43.27.53.02 1.07-.05 1.43-.27 3.37-2 6.74-4 10.11-5.99 5.08-2.96 10.16-5.94 15.18-8.99 2.85-1.73 5.66-3.51 8.45-5.31.87-.54 1.74-1.07 2.61-1.62.6-.38 1.16-.8 1.73-1.21 12.77-8.48 24.98-17.72 36.6-27.78 16.94-14.65 32.14-30.88 44.43-49.69 5.88-9 10.94-18.44 14.91-28.43 3.07-7.74 5.79-15.61 7.04-23.88 1.07-7.07 2.57-14.17 2.64-21.27.31-30.2.15-60.4.17-90.6 0-15.85-.03-31.69.03-47.54z" fill="#652d90"/><path d="m5.63 153.1c8.47-1.79 17.05-3.68 25.5-5.56 0-6.6 0-13.2-.03-19.8 0-4.86-.26-9.73-.25-14.59.05-14.66.18-29.33.25-43.99 0-1.05.42-1.52 1.41-1.81 1.86-.53 3.72-1.09 5.58-1.63 1.15-.34 2.41-.7 3.72-1.09 1.89-.56 3.89-1.15 5.82-1.71 3.9-1.14 7.81-2.28 11.71-3.42 2.96-.86 5.93-1.71 8.89-2.57 3.99-1.14 7.98-2.27 11.97-3.42 6.04-1.74 12.06-3.51 18.1-5.26 5.5-1.59 11-3.17 16.49-4.77 6.03-1.75 12.07-3.5 18.1-5.26 1.41-.41 2.82-.86 4.22-1.31 1.09-.31 2.18-.63 3.28-.94.69-.19 1.39-.42 2.1-.63.88-.22 1.75-.42 2.64-.58.21-.04.42-.05.64-.06h.3s.2 0 .3 0c.21 0 .43.03.64.06.89.16 1.76.36 2.64.58.71.21 1.42.43 2.1.63 1.1.3 2.19.63 3.28.94 1.41.45 2.81.9 4.22 1.31 6.03 1.76 12.06 3.51 18.1 5.26 5.5 1.59 11 3.17 16.49 4.77 6.03 1.75 12.06 3.52 18.1 5.26.44.13.88.25 1.32.38 10.5-7.79 20.87-15.39 30.89-22.54-2.01-.59-4.03-1.18-6.04-1.77-5.91-1.72-11.83-3.42-17.74-5.14-5.61-1.63-11.22-3.29-16.83-4.91-5.97-1.73-11.96-3.42-17.93-5.15-5.5-1.6-10.98-3.25-16.47-4.85-2.94-.86-5.92-1.62-8.88-2.44-1.69-.47-3.38-.96-5.05-1.48-1.33-.42-2.65-.87-3.96-1.36-1.81-.68-3.51-.88-5.17-.8-1.66-.08-3.36.12-5.17.8-1.31.49-2.63.94-3.96 1.36-1.67.53-3.36 1.02-5.05 1.48-2.96.82-5.93 1.58-8.87 2.44-5.5 1.6-10.98 3.25-16.47 4.85-5.97 1.73-11.96 3.43-17.93 5.15-5.61 1.63-11.22 3.28-16.83 4.91-5.91 1.72-11.83 3.42-17.74 5.14-5.55 1.62-11.1 3.26-16.65 4.88-5.97 1.74-11.94 3.47-17.91 5.2-5.56 1.61-11.09 3.29-16.68 4.8-.14.04-.27.08-.4.13-.83.2-1.29.64-1.5 1.36-.1.32-.15.7-.15 1.16v.02c.06 15.85.03 31.69.03 47.54 0 19.98-.05 39.95 0 59.93l.08-.48 4.75-1.02z" fill="#bf1e2e"/><path d="m239.39 226.06c10.45-8.96 18.25-20.53 27.88-30.33-13.72-4.1-27.79-7.35-41.14-12.34-16.51-16.61-32.35-33.96-47.7-51.65 8.99-10.9 19.45-23.65 30.32-36.93l-57.59 14.59c-13.47 10.02-26.57 19.59-38.91 28.24l126.67 88.4c.17 0 .32 0 .47.02zm-68.59-54.53c4.63-3.94 9.46-7.65 14.18-11.47 5.6 4.86 11.1 9.8 16 15.37-10.05-1.29-20.12-2.59-30.18-3.9z" fill="url(#c)"/><path d="m129.19 209.17c-1.88 15.45-5.47 30.59-7.38 46.01 17.63-11.16 35-22.74 52.8-33.65h.04l-42.59-12.48c-.96.07-1.92.12-2.87.12z" fill="url(#d)"/><path d="m265.67 25.04c-35.05 23.96-76.25 55.91-114.49 84.35l57.59-14.59c19.7-24.06 40.76-49.9 56.9-69.76z" fill="url(#e)"/><path d="m112.26 137.63c-.62.43-1.24.87-1.86 1.3 4.22 4.41 7.98 8.2 15.22 15.05 3.14 5.81 8.85 3.98 13.54 5.47 14.06 1.97 23.24 18.32 18.51 31.56-2.97 11.26-14.62 17.15-25.62 18.03l42.59 12.48c21.4 2 42.9 2.82 64.29 4.49 0 0-126.67-88.38-126.67-88.38z" fill="url(#g)"/><path d="m107.27 185.95c-.11-2.41.18-4.84 1-7.12 2.85-7.97 7.83-15.03 15.46-19l-112.03 1.73c-3.92.87-7.48 1.6-10.56 2.14-.18 2.33.69 11.61 2.29 23.15l103.61.93c.2-.3.29-.61.23-1.83z" fill="url(#h)"/><path d="m125.34 159.06s-14.47-14.61-20.6-19.8c-28.19 5.25-68.11 16.75-93.04 22.3l112.02-1.72c.53-.28 1.06-.54 1.62-.78z" fill="url(#i)"/><path d="m106.48 188.65c.24-.5.43-.69.57-.89l-103.61-.93c1.9 13.67 4.84 30.51 8.34 42.73 31.6-13.53 63.3-26.94 94.7-40.91z" fill="url(#k)"/><path d="m203.29 153.85c6.72-12.55 20.24-39.28 32.44-63.98l-49.76 43.86c6.08 7.02 10.69 13.27 17.32 20.12z" fill="url(#l)"/><path d="m184.77 132.35c.41.47.8.92 1.2 1.38l49.76-43.86c12.12-24.54 22.95-47.07 24.53-51.67-23.25 26.94-52.54 66.97-75.49 94.15z" fill="url(#m)"/><path d="m114.91 200.57-97.94 41.47c8.62 18.27 20.02 35.26 35.24 48.71 20.64-30.2 42.1-59.85 62.82-89.98-.04-.07-.08-.14-.12-.2z" fill="url(#n)"/><path d="m109.72 192.51c-32.04 14.03-64.63 26.82-96.17 41.88 1.09 2.57 2.23 5.13 3.42 7.65l97.94-41.47c-1.73-2.67-3.46-5.37-5.19-8.06z" fill="url(#o)"/><path d="m55.31 294.13c10.74 8.12 22.18 15.39 34.41 21l20.37-99.22c-18.5 25.89-36.45 52.21-54.78 78.22z" fill="url(#p)"/><path d="m124.82 206.88c-1.54-.68-4.69-2.06-6.23-2.77-2.85 3.92-5.68 7.86-8.5 11.8l-20.37 99.22c5.26 2.41 10.66 4.52 16.22 6.25 6.63-38.1 12.67-76.34 18.88-114.5z" fill="url(#q)"/><path d="m120.86 260.42s0 .01-.02.01c-3.16 20.73-7.14 41.37-10.5 62.08l22.65-46.92s-12.13-15.17-12.13-15.17z" fill="url(#r)"/><path d="m149.25 241.92c-9.38 6.27-18.79 12.53-28.38 18.49l12.13 15.17z" fill="url(#s)"/><path d="m110.35 322.5s0 .07-.02.11c20.4 5.89 41.77 5.85 62.67 3.38-.06-.21-.11-.42-.17-.62l-39.83-49.79z" fill="url(#t)"/><path d="m149.25 241.92-16.25 33.66 39.83 49.79c-7.45-27.99-15.16-55.96-22.97-83.86-.2.14-.41.27-.61.41z" fill="url(#u)"/><g fill="#f2f2f2"><path d="m320.28 104.13h62.73v102h30.61v-102h61.03v-25.68h-154.37z"/><path d="m508.19 80.74c-5.28 1.57-9.68 3.84-13.09 6.73-3.5 2.97-6.09 6.57-7.69 10.7-1.53 3.96-2.31 8.39-2.31 13.17v61.88c0 4.79.78 9.22 2.31 13.17 1.6 4.13 4.18 7.73 7.69 10.7 3.41 2.9 7.82 5.17 13.09 6.74 5.1 1.52 11.32 2.29 18.48 2.29h100.39v-25.68h-100.39c-10.96 0-10.96-4.76-10.96-7.05v-62.22c0-2.29 0-7.05 10.96-7.05h100.39v-25.68h-100.39c-7.15 0-13.37.78-18.48 2.3z"/><path d="m807.85 78.45-68.69 94.94-69.01-94.94h-27.12v127.68h28.91v-75.37l55 75.37h22.6l54.82-75.49v75.49h28.91v-127.68z"/><path d="m397.41 226.47c12.2 0 18.47 7.3 18.47 20.06v2.51h-11.86v-3.31c0-5.7-2.28-7.87-6.27-7.87s-6.27 2.17-6.27 7.87 2.51 10.15 10.72 17.33c10.49 9.23 13.79 15.85 13.79 24.97 0 12.77-6.38 20.06-18.7 20.06s-18.7-7.3-18.7-20.06v-4.9h11.86v5.7c0 5.7 2.51 7.75 6.5 7.75s6.5-2.05 6.5-7.75-2.51-10.15-10.72-17.33c-10.49-9.23-13.79-15.85-13.79-24.97.01-12.76 6.28-20.06 18.47-20.06z"/><path d="m454.53 261.01h17.21v11.4h-17.21v23.37h21.66v11.4h-34.2v-79.8h34.2v11.4h-21.66z"/><path d="m539.11 277.43v10.6c0 12.77-6.38 20.06-18.7 20.06s-18.7-7.3-18.7-20.06v-41.5c0-12.77 6.38-20.06 18.7-20.06s18.7 7.3 18.7 20.06v7.75h-11.85v-8.55c0-5.7-2.51-7.87-6.5-7.87s-6.5 2.17-6.5 7.87v43.09c0 5.7 2.51 7.75 6.5 7.75s6.5-2.05 6.5-7.75v-11.4h11.85z"/><path d="m577.53 227.38v61.56c0 5.7 2.51 7.75 6.5 7.75s6.5-2.05 6.5-7.75v-61.56h11.86v60.76c0 12.77-6.38 20.06-18.7 20.06s-18.7-7.3-18.7-20.06v-60.76z"/><path d="m655.96 307.18c-.68-2.05-1.14-3.31-1.14-9.8v-12.54c0-7.41-2.51-10.15-8.21-10.15h-4.33v32.49h-12.54v-79.8h18.92c13 0 18.58 6.04 18.58 18.35v6.27c0 8.21-2.62 13.45-8.21 16.07v.23c6.27 2.62 8.32 8.55 8.32 16.87v12.31c0 3.88.11 6.73 1.37 9.69h-12.76zm-13.68-68.39v24.51h4.9c4.67 0 7.52-2.05 7.52-8.44v-7.87c0-5.7-1.94-8.21-6.38-8.21h-6.04z"/><path d="m694.38 227.38h12.54v79.8h-12.54z"/><path d="m731.2 227.38h38.76v11.4h-13.11v68.4h-12.54v-68.4h-13.11z"/><path d="m805.98 280.73-15.85-53.35h13.11l9.46 36.37h.23l9.46-36.37h11.97l-15.85 53.35v26.45h-12.54v-26.45z"/><path d="m422.18 344.79h-14.82l-3.19 7.1h-2.93l12.16-26.6h2.77l12.16 26.6h-2.96zm-1.02-2.28-6.38-14.29-6.38 14.29h12.77z"/><path d="m450.61 340.3v11.59h-2.7v-11.32c0-4.22-2.2-6.38-6-6.38-4.29 0-6.99 2.66-6.99 7.22v10.49h-2.7v-19.98h2.58v3.69c1.44-2.43 4.14-3.84 7.6-3.84 4.86 0 8.21 2.81 8.21 8.55z"/><path d="m487.35 349.46v2.43h-18.81v-26.6h18.24v2.43h-15.43v9.46h13.75v2.39h-13.75v9.88h16z"/><path d="m511.37 323.7v28.19h-2.58v-3.95c-1.63 2.7-4.41 4.14-7.71 4.14-5.7 0-9.95-4.14-9.95-10.18s4.25-10.14 9.95-10.14c3.19 0 5.93 1.37 7.6 3.95v-12.01h2.7zm-2.66 18.2c0-4.67-3.19-7.79-7.41-7.79s-7.45 3.12-7.45 7.79 3.19 7.79 7.45 7.79 7.41-3.12 7.41-7.79z"/><path d="m536.94 331.91v19.98h-2.58v-3.65c-1.41 2.43-3.99 3.84-7.18 3.84-5.09 0-8.43-2.85-8.43-8.59v-11.59h2.7v11.32c0 4.26 2.2 6.42 6 6.42 4.18 0 6.8-2.7 6.8-7.26v-10.49h2.7v.02z"/><path d="m542.53 341.9c0-5.96 4.33-10.14 10.3-10.14 3.38 0 6.23 1.33 7.83 3.95l-2.01 1.37c-1.37-2.01-3.5-2.96-5.81-2.96-4.37 0-7.56 3.12-7.56 7.79s3.19 7.79 7.56 7.79c2.32 0 4.45-.91 5.81-2.93l2.01 1.37c-1.6 2.58-4.45 3.95-7.83 3.95-5.96 0-10.3-4.22-10.3-10.18z"/><path d="m581.06 339.51v12.39h-2.58v-3.12c-1.22 2.05-3.57 3.31-6.88 3.31-4.52 0-7.29-2.36-7.29-5.81 0-3.08 1.98-5.66 7.71-5.66h6.34v-1.22c0-3.42-1.94-5.28-5.66-5.28-2.58 0-5.01.91-6.65 2.36l-1.22-2.01c2.01-1.71 4.98-2.7 8.13-2.7 5.17 0 8.09 2.58 8.09 7.75zm-2.7 6.38v-3.27h-6.27c-3.88 0-5.13 1.52-5.13 3.57 0 2.32 1.86 3.76 5.05 3.76s5.28-1.44 6.34-4.06z"/><path d="m598.96 350.68c-1.06.95-2.66 1.41-4.22 1.41-3.76 0-5.85-2.13-5.85-5.81v-12.08h-3.57v-2.28h3.57v-4.37h2.7v4.37h6.08v2.28h-6.08v11.93c0 2.36 1.22 3.65 3.46 3.65 1.1 0 2.2-.34 2.96-1.03l.95 1.94z"/><path d="m620.58 342.74h-16.72c.3 4.18 3.5 6.95 7.87 6.95 2.43 0 4.6-.87 6.12-2.62l1.52 1.75c-1.79 2.13-4.56 3.27-7.71 3.27-6.23 0-10.49-4.25-10.49-10.18s4.14-10.14 9.76-10.14 9.69 4.14 9.69 10.14c0 .23-.04.53-.04.84zm-16.72-2.02h14.17c-.34-3.91-3.19-6.65-7.1-6.65s-6.73 2.73-7.07 6.65z"/><path d="m651.97 344.26c0 4.45-3.23 7.87-9.65 7.87-3.84 0-7.52-1.33-9.58-3.42l1.33-2.17c1.71 1.79 4.79 3.08 8.25 3.08 4.41 0 6.84-2.05 6.84-5.36s-2.24-5.28-7.18-5.28h-1.9v-2.01l7.37-9.23h-13.6v-2.43h17.1v1.94l-7.52 9.46c5.7.3 8.55 3.31 8.55 7.56z"/><path d="m675.83 343.95c0 4.98-3.91 8.17-9.08 8.17-7.07 0-10.9-4.9-10.9-13.3 0-9.04 4.94-13.75 12.16-13.75 2.39 0 4.64.42 6.31 1.44l-1.1 2.2c-1.37-.91-3.19-1.25-5.17-1.25-5.74 0-9.42 3.69-9.42 10.9 0 .61.04 1.37.11 2.17 1.33-2.93 4.45-4.56 8.13-4.56 5.28 0 8.97 3.12 8.97 7.98zm-2.7.08c0-3.5-2.58-5.74-6.69-5.74s-6.84 2.51-6.84 5.81c0 2.93 2.43 5.7 7.03 5.7 3.84 0 6.5-2.24 6.5-5.77z"/><path d="m679.02 338.6c0-8.47 4.45-13.53 10.6-13.53s10.64 5.05 10.64 13.53-4.48 13.53-10.64 13.53-10.6-5.05-10.6-13.53zm18.43 0c0-7.11-3.19-11.02-7.83-11.02s-7.83 3.91-7.83 11.02 3.19 11.02 7.83 11.02 7.83-3.91 7.83-11.02z"/><path d="m738.79 344.79c0 4.52-3.34 7.1-9.99 7.1h-12.23v-26.6h11.47c5.93 0 9.35 2.51 9.35 6.84 0 3.04-1.63 5.05-4.07 6.04 3.42.76 5.47 3 5.47 6.61zm-19.41-17.18v9.65h8.47c4.26 0 6.73-1.63 6.73-4.83s-2.47-4.82-6.73-4.82zm16.6 16.95c0-3.46-2.54-4.98-7.22-4.98h-9.38v9.99h9.38c4.67 0 7.22-1.52 7.22-5.01z"/><path d="m754.76 331.76v2.62c-.23 0-.46-.04-.65-.04-4.18 0-6.72 2.66-6.72 7.37v10.18h-2.7v-19.98h2.58v3.91c1.25-2.66 3.8-4.07 7.49-4.07z"/><path d="m774.7 339.51v12.39h-2.58v-3.12c-1.22 2.05-3.57 3.31-6.88 3.31-4.52 0-7.29-2.36-7.29-5.81 0-3.08 1.98-5.66 7.71-5.66h6.34v-1.22c0-3.42-1.94-5.28-5.66-5.28-2.58 0-5.01.91-6.65 2.36l-1.22-2.01c2.01-1.71 4.98-2.7 8.13-2.7 5.17 0 8.09 2.58 8.09 7.75h.01zm-2.69 6.38v-3.27h-6.27c-3.88 0-5.13 1.52-5.13 3.57 0 2.32 1.86 3.76 5.05 3.76s5.28-1.44 6.34-4.06z"/><path d="m800.47 340.3v11.59h-2.7v-11.32c0-4.22-2.2-6.38-6-6.38-4.29 0-6.99 2.66-6.99 7.22v10.49h-2.7v-19.98h2.58v3.69c1.44-2.43 4.14-3.84 7.6-3.84 4.86 0 8.21 2.81 8.21 8.55z"/><path d="m826.16 323.7v28.19h-2.58v-3.95c-1.63 2.7-4.41 4.14-7.71 4.14-5.7 0-9.95-4.14-9.95-10.18s4.25-10.14 9.95-10.14c3.19 0 5.93 1.37 7.6 3.95v-12.01h2.7zm-2.66 18.2c0-4.67-3.19-7.79-7.41-7.79s-7.45 3.12-7.45 7.79 3.19 7.79 7.45 7.79 7.41-3.12 7.41-7.79z"/></g></svg>