<svg width="175" height="26" viewBox="0 0 175 26" fill="none" xmlns="http://www.w3.org/2000/svg">
<path d="M19.7016 18.2739C19.5694 21.1253 17.209 23.1835 14.0933 23.1835H7.59739V16.7821L5.3125 15.7812V25.0908H14.0744C18.6064 25.0908 21.9676 21.9939 21.9676 17.8962C21.9676 17.8396 21.9676 17.7829 21.9676 17.7262C21.2878 17.9717 20.5325 18.1605 19.7016 18.2739Z" fill="#297FFF"/>
<path d="M21.1175 8.34229C19.3802 4.50897 18.455 1.03444 16.0568 0.222458C14.6594 -0.249625 13.9608 0.128041 13.2998 0.449058C13.0921 0.543475 13.0544 0.826725 13.2243 0.977792C13.6019 1.2988 14.074 1.69536 14.6217 2.20521C12.5822 1.01556 6.95503 -0.759475 6.38853 1.39323C5.87868 3.33821 5.01004 6.18959 5.01004 6.18959C5.01004 6.18959 0.553581 5.73639 0.043731 7.62473C-0.466119 9.51305 3.51827 13.1386 10.1086 15.0836C16.6988 17.0286 21.8162 16.5187 24.0255 14.1206C26.2349 11.7224 24.1011 8.39894 21.1175 8.34229ZM19.8145 8.38006C19.3047 8.87102 17.643 10.1362 13.9985 9.87181C10.0897 9.58859 6.8795 7.28482 6.04863 6.64279C5.91645 6.54838 5.85979 6.39731 5.91645 6.22736C5.9731 6.03852 6.04863 5.73639 6.18082 5.33984C6.25635 5.09436 6.53959 4.98105 6.74731 5.11324C8.39016 6.0574 11.0338 7.43589 13.8474 7.62473C16.3589 7.79467 17.8696 7.05822 18.8515 6.5106C19.0592 6.39731 19.3237 6.49172 19.4181 6.71832L19.909 7.92686C19.9468 8.09681 19.9279 8.26676 19.8145 8.38006Z" fill="#297FFF"/>
<path d="M34.865 20.3118H32.1081C30.9373 20.3118 30.031 19.9907 29.3889 19.3487C28.7468 18.7067 28.4258 17.8003 28.4258 16.6484V8.71741C28.4258 7.54664 28.7468 6.64024 29.3889 5.99821C30.031 5.35617 30.9373 5.03516 32.1081 5.03516H34.865C36.0169 5.03516 36.9234 5.35617 37.5653 5.99821C38.2074 6.64024 38.5284 7.54664 38.5284 8.71741V9.85043C38.5284 10.1336 38.3962 10.2847 38.094 10.2847H36.6401C36.3757 10.2847 36.2435 10.1525 36.2435 9.85043V8.81183C36.2435 7.64106 35.6771 7.05568 34.544 7.05568H32.4669C31.3339 7.05568 30.7673 7.64106 30.7673 8.81183V16.5351C30.7673 17.7059 31.3339 18.2912 32.4669 18.2912H34.544C35.6771 18.2912 36.2435 17.7059 36.2435 16.5351V15.4965C36.2435 15.2133 36.3757 15.0622 36.6401 15.0622H38.1319C38.4151 15.0622 38.5662 15.1944 38.5662 15.4965V16.6295C38.5662 17.7814 38.2451 18.6878 37.6032 19.3299C36.9422 19.9907 36.0358 20.3118 34.865 20.3118Z" fill="#297FFF"/>
<path d="M42.2082 24.1485H40.943C40.6787 24.1485 40.5466 24.0163 40.5466 23.7519V22.5434C40.5466 22.2601 40.6787 22.1091 40.943 22.1091H41.4907C42.4537 22.1091 43.1335 21.9202 43.4924 21.5426C43.87 21.1649 44.1722 20.5418 44.4365 19.6732H43.4924C43.2657 19.6732 43.0958 19.5409 43.0014 19.2766L39.8478 8.60749C39.7912 8.34312 39.8856 8.21094 40.15 8.21094H41.7362C41.9817 8.21094 42.1516 8.34312 42.2082 8.60749L44.7953 17.917H44.8897L47.4767 8.60749C47.5144 8.34312 47.6844 8.21094 47.9488 8.21094H49.4784C49.7804 8.21094 49.9127 8.34312 49.856 8.64526L46.5891 20.0696C46.2304 21.4104 45.7205 22.4112 45.0408 23.1288C44.3987 23.8086 43.4545 24.1485 42.2082 24.1485Z" fill="#297FFF"/>
<path d="M51.4062 19.8985V4.01764C51.4062 3.75327 51.5384 3.62109 51.8027 3.62109H53.2945C53.5589 3.62109 53.6911 3.75327 53.6911 4.01764V9.38051H53.7855C54.1821 8.53076 54.994 8.09644 56.1838 8.09644H57.2223C58.3931 8.09644 59.2995 8.41746 59.9604 9.05949C60.6024 9.70152 60.9234 10.608 60.9234 11.7598V16.6317C60.9234 17.7836 60.6024 18.69 59.9604 19.332C59.3184 19.9741 58.3931 20.2951 57.2223 20.2951H51.7839C51.5384 20.314 51.4062 20.1629 51.4062 19.8985ZM53.9743 18.2934H56.9201C58.0532 18.2934 58.6197 17.7081 58.6197 16.5373V11.8731C58.6197 10.7024 58.0532 10.117 56.9201 10.117H55.6549C54.352 10.117 53.71 10.7779 53.71 12.1186V18.0291C53.71 18.199 53.8044 18.2934 53.9743 18.2934Z" fill="#297FFF"/>
<path d="M71.8184 20.3145H66.6822C65.5114 20.3145 64.6051 19.9935 63.963 19.3515C63.3209 18.7094 63 17.803 63 16.6512V11.8737C63 10.7029 63.3209 9.79649 63.963 9.15446C64.6051 8.51242 65.5114 8.19141 66.6822 8.19141H68.6272C69.7979 8.19141 70.7043 8.51242 71.3653 9.15446C72.0073 9.79649 72.3284 10.7029 72.3284 11.8737V14.895C72.3284 15.1782 72.1961 15.3293 71.894 15.3293H65.5304C65.3604 15.3293 65.266 15.4049 65.266 15.556V16.5756C65.266 17.7275 65.8513 18.3128 67.0032 18.3128H71.7996C72.0829 18.3128 72.2339 18.4451 72.2339 18.7471V19.9369C72.2528 20.1824 72.1017 20.3145 71.8184 20.3145ZM65.5492 13.7053H69.7979C69.9679 13.7053 70.0245 13.6298 70.0245 13.4788V11.9492C70.0245 11.3449 69.8924 10.9106 69.628 10.6274C69.3636 10.3442 68.9293 10.2119 68.3251 10.2119H67.0221C66.4178 10.2119 65.9835 10.3442 65.7192 10.6274C65.4548 10.9106 65.3226 11.3449 65.3226 11.9492V13.4788C65.3226 13.6298 65.3981 13.7053 65.5492 13.7053Z" fill="#297FFF"/>
<path d="M76.3883 20.3151H74.8966C74.6321 20.3151 74.5 20.183 74.5 19.9186V8.60749C74.5 8.34312 74.6321 8.21094 74.8966 8.21094H76.3883C76.6527 8.21094 76.7849 8.34312 76.7849 8.60749V9.51389H76.8793C77.0492 9.11734 77.3325 8.79632 77.8046 8.56972C78.2578 8.34312 78.7487 8.21094 79.3152 8.21094H80.1839C80.4483 8.21094 80.5804 8.34312 80.5804 8.60749V9.83495C80.5804 10.137 80.4483 10.2693 80.1839 10.2126H78.7487C77.4269 10.2126 76.7849 10.9302 76.7849 12.3842V19.9186C76.7849 20.164 76.6527 20.3151 76.3883 20.3151Z" fill="#297FFF"/>
<path d="M82.207 19.8963V5.4317C82.207 5.16734 82.3393 5.03516 82.6036 5.03516H88.4386C89.5904 5.03516 90.4969 5.35617 91.1578 5.99821C91.8187 6.64024 92.1397 7.54664 92.1397 8.71741V16.6295C92.1397 17.7814 91.8187 18.6878 91.1578 19.3299C90.4969 19.9719 89.5904 20.2929 88.4386 20.2929H82.6036C82.3393 20.3118 82.207 20.1607 82.207 19.8963ZM84.7752 18.2912H88.1176C89.2505 18.2912 89.8171 17.7059 89.8171 16.5351V8.81183C89.8171 7.64106 89.2505 7.05568 88.1176 7.05568H84.7752C84.6053 7.05568 84.5109 7.13121 84.5109 7.28228V18.0269C84.5109 18.1968 84.6053 18.2912 84.7752 18.2912Z" fill="#297FFF"/>
<path d="M103.26 20.3145H98.1236C96.9529 20.3145 96.0465 19.9935 95.4044 19.3515C94.7624 18.7094 94.4414 17.803 94.4414 16.6512V11.8737C94.4414 10.7029 94.7624 9.79649 95.4044 9.15446C96.0465 8.51242 96.9529 8.19141 98.1236 8.19141H100.069C101.24 8.19141 102.145 8.51242 102.806 9.15446C103.449 9.79649 103.77 10.7029 103.77 11.8737V14.895C103.77 15.1782 103.638 15.3293 103.335 15.3293H96.9718C96.8018 15.3293 96.7074 15.4049 96.7074 15.556V16.5756C96.7074 17.7275 97.2928 18.3128 98.4448 18.3128H103.241C103.525 18.3128 103.675 18.4451 103.675 18.7471V19.9369C103.695 20.1824 103.543 20.3145 103.26 20.3145ZM96.9906 13.7053H101.24C101.41 13.7053 101.466 13.6298 101.466 13.4788V11.9492C101.466 11.3449 101.334 10.9106 101.07 10.6274C100.805 10.3442 100.371 10.2119 99.7661 10.2119H98.4635C97.8592 10.2119 97.4249 10.3442 97.1606 10.6274C96.8962 10.9106 96.764 11.3449 96.764 11.9492V13.4788C96.7451 13.6298 96.8207 13.7053 96.9906 13.7053Z" fill="#297FFF"/>
<path d="M109.564 8.19216H111.567C111.849 8.19216 112.001 8.32434 112.001 8.56982V9.81612C112.001 10.0804 111.868 10.2127 111.567 10.2127H109.564C109.395 10.2127 109.339 10.2882 109.339 10.4393V19.8998C109.339 20.1641 109.206 20.2964 108.903 20.2964H107.412C107.148 20.2964 107.015 20.1641 107.015 19.8998V10.4582C107.015 10.2882 106.921 10.2315 106.751 10.2315H105.486C105.221 10.2315 105.09 10.0994 105.09 9.83505V8.60758C105.09 8.47541 105.109 8.3621 105.165 8.30545C105.221 8.24881 105.334 8.22992 105.486 8.22992H106.751C106.921 8.22992 107.015 8.15439 107.015 8.00333V7.30463C107.015 6.13387 107.318 5.22747 107.922 4.60432C108.526 3.96229 109.395 3.66016 110.566 3.66016H111.604C111.868 3.66016 112.001 3.79234 112.001 4.03782V5.26524C112.001 5.5296 111.868 5.66179 111.604 5.66179H110.887C110.32 5.66179 109.923 5.79397 109.697 6.07722C109.47 6.36047 109.357 6.79479 109.357 7.41794V7.98444C109.339 8.11662 109.413 8.19216 109.564 8.19216Z" fill="#297FFF"/>
<path d="M121.974 20.3145H116.838C115.667 20.3145 114.76 19.9935 114.119 19.3515C113.476 18.7094 113.156 17.803 113.156 16.6512V11.8737C113.156 10.7029 113.476 9.79649 114.119 9.15446C114.76 8.51242 115.667 8.19141 116.838 8.19141H118.783C119.954 8.19141 120.86 8.51242 121.521 9.15446C122.163 9.79649 122.484 10.7029 122.484 11.8737V14.895C122.484 15.1782 122.352 15.3293 122.05 15.3293H115.686C115.516 15.3293 115.422 15.4049 115.422 15.556V16.5756C115.422 17.7275 116.007 18.3128 117.159 18.3128H121.955C122.239 18.3128 122.389 18.4451 122.389 18.7471V19.9369C122.409 20.1824 122.258 20.3145 121.974 20.3145ZM115.705 13.7053H119.954C120.124 13.7053 120.18 13.6298 120.18 13.4788V11.9492C120.18 11.3449 120.048 10.9106 119.784 10.6274C119.519 10.3442 119.085 10.2119 118.481 10.2119H117.178C116.574 10.2119 116.14 10.3442 115.875 10.6274C115.61 10.9106 115.479 11.3449 115.479 11.9492V13.4788C115.479 13.6298 115.554 13.7053 115.705 13.7053Z" fill="#297FFF"/>
<path d="M126.544 20.3145H125.052C124.788 20.3145 124.656 20.1824 124.656 19.9179V8.60684C124.656 8.34247 124.788 8.21029 125.052 8.21029H126.544C126.809 8.21029 126.94 8.34247 126.94 8.60684V9.45658H127.036C127.413 8.62573 128.206 8.19141 129.433 8.19141H130.472C131.624 8.19141 132.511 8.51242 133.134 9.13557C133.758 9.77761 134.059 10.6841 134.059 11.8737V19.8991C134.059 20.1634 133.928 20.2956 133.625 20.2956H132.134C131.87 20.2956 131.737 20.1634 131.737 19.8991V11.9681C131.737 10.7973 131.152 10.2119 129.999 10.2119H128.885C127.583 10.2119 126.94 10.8917 126.94 12.2324V19.8991C126.94 20.1634 126.809 20.3145 126.544 20.3145Z" fill="#297FFF"/>
<path d="M140.969 20.314H139.741C138.608 20.314 137.721 19.9929 137.117 19.3509C136.512 18.7089 136.191 17.8025 136.191 16.6317V11.8731C136.191 10.6834 136.493 9.77706 137.117 9.13503C137.721 8.49299 138.608 8.19086 139.741 8.19086H140.95C142.177 8.19086 142.951 8.60629 143.329 9.45604H143.424V4.01764C143.424 3.75327 143.555 3.62109 143.82 3.62109H145.35C145.614 3.62109 145.746 3.75327 145.746 4.01764V19.9174C145.746 20.1817 145.614 20.314 145.35 20.314H143.82C143.555 20.314 143.424 20.1817 143.424 19.9174V19.0676H143.329C142.971 19.8985 142.177 20.314 140.969 20.314ZM143.424 16.2729V12.2319C143.424 10.8912 142.781 10.2114 141.478 10.2114H140.213C139.081 10.2114 138.514 10.7968 138.514 11.9675V16.5373C138.514 17.7081 139.081 18.2934 140.213 18.2934H141.478C142.781 18.2934 143.424 17.6136 143.424 16.2729Z" fill="#297FFF"/>
<path d="M156.85 20.3145H151.714C150.543 20.3145 149.636 19.9935 148.995 19.3515C148.352 18.7094 148.031 17.803 148.031 16.6512V11.8737C148.031 10.7029 148.352 9.79649 148.995 9.15446C149.636 8.51242 150.543 8.19141 151.714 8.19141H153.659C154.829 8.19141 155.736 8.51242 156.397 9.15446C157.039 9.79649 157.36 10.7029 157.36 11.8737V14.895C157.36 15.1782 157.228 15.3293 156.926 15.3293H150.562C150.392 15.3293 150.298 15.4049 150.298 15.556V16.5756C150.298 17.7275 150.883 18.3128 152.035 18.3128H156.831C157.114 18.3128 157.265 18.4451 157.265 18.7471V19.9369C157.284 20.1824 157.152 20.3145 156.85 20.3145ZM150.58 13.7053H154.849C155.019 13.7053 155.075 13.6298 155.075 13.4788V11.9492C155.075 11.3449 154.943 10.9106 154.679 10.6274C154.415 10.3442 153.979 10.2119 153.375 10.2119H152.073C151.469 10.2119 151.034 10.3442 150.77 10.6274C150.506 10.9106 150.373 11.3449 150.373 11.9492V13.4788C150.355 13.6298 150.43 13.7053 150.58 13.7053Z" fill="#297FFF"/>
<path d="M161.42 20.3151H159.928C159.664 20.3151 159.531 20.183 159.531 19.9186V8.60749C159.531 8.34312 159.664 8.21094 159.928 8.21094H161.42C161.685 8.21094 161.816 8.34312 161.816 8.60749V9.51389H161.911C162.08 9.11734 162.364 8.79632 162.836 8.56972C163.29 8.34312 163.78 8.21094 164.347 8.21094H165.215C165.48 8.21094 165.612 8.34312 165.612 8.60749V9.83495C165.612 10.137 165.48 10.2693 165.215 10.2126H163.78C162.459 10.2126 161.816 10.9302 161.816 12.3842V19.9186C161.816 20.164 161.685 20.3151 161.42 20.3151Z" fill="#297FFF"/>
<path d="M171.333 20.3145H166.952C166.688 20.3145 166.556 20.1824 166.556 19.9179V18.7471C166.556 18.5018 166.688 18.3695 166.952 18.3695H170.936C171.975 18.3695 172.485 18.0108 172.485 17.2932V17.0099C172.485 16.3679 172.107 15.8959 171.371 15.556L168.784 14.3285C167.972 13.9508 167.386 13.5353 167.028 13.0633C166.669 12.5912 166.48 12.0058 166.48 11.2505C166.48 9.2111 167.613 8.19141 169.879 8.19141H173.826C174.071 8.19141 174.204 8.32359 174.204 8.58795V9.75872C174.204 10.0231 174.071 10.1552 173.826 10.1552H170.351C169.879 10.1552 169.521 10.2308 169.256 10.4007C169.011 10.5707 168.878 10.7785 168.878 11.0617V11.326C168.878 11.8359 169.275 12.2702 170.087 12.6667L172.693 14.0075C173.524 14.3662 174.071 14.8006 174.392 15.2915C174.694 15.7825 174.845 16.4434 174.845 17.2365C174.864 19.2759 173.694 20.3145 171.333 20.3145Z" fill="#297FFF"/>
</svg>
